<svg width="150" height="94" viewBox="0 0 150 94" fill="none" xmlns="http://www.w3.org/2000/svg"><path d="M23.61 28.672v-4.887h-3.84v4.887h-4.003V16.047h4.003v4.643h3.84v-4.643h4.004v12.625H23.61zm6.946 0V16.047h4.003v12.625h-4.003zm15.606-8.31c-.245-1.303-1.226-1.874-2.451-1.874-2.288 0-3.023 1.874-3.023 3.584 0 2.851 1.47 3.829 3.104 3.829 1.062 0 2.288-.49 2.37-1.792h-2.37v-2.525h5.801v7.005H46.57v-.896c-.735.57-2.042 1.221-3.84 1.221-2.614 0-6.209-1.954-6.209-6.597 0-3.747 2.37-6.924 6.781-6.924 2.533 0 5.637 1.222 6.373 3.91l-3.513 1.059zm14.133 8.31v-4.887h-3.84v4.887h-4.003V16.047h4.003v4.643h3.84v-4.643H64.3v12.625h-4.004zM22.221 40.158v9.53h-4.003v-9.53H14.95v-3.096h10.458v3.096H22.22zm4.414 9.53V37.062h10.049v2.77h-6.046v1.873h5.637v2.77h-5.637V47h6.536v2.688h-10.54zm24.51-3.258c-.735 1.385-2.288 3.666-6.21 3.666-4.656 0-6.535-3.665-6.535-6.68 0-3.99 2.778-6.841 6.618-6.841 3.431 0 5.392 2.036 6.127 3.502l-3.35 1.63c-.326-.57-.817-2.118-2.614-2.118-1.88 0-2.696 1.71-2.696 3.42 0 2.933 1.389 3.748 2.696 3.748 1.634 0 2.206-1.222 2.533-2.118l3.431 1.792zm9.559 3.258V44.8h-3.84v4.887h-4.003V37.062h4.003v4.643h3.84v-4.642h4.003v12.625h-4.003zm14.868 0l-4.167-7.25v7.25h-3.758V37.062h4.248l4.249 7.169v-7.169h3.758v12.626h-4.33zm13.153.408c-4.085 0-6.781-2.525-6.781-6.76 0-3.34 1.96-6.761 6.863-6.761 4.656 0 6.78 3.258 6.78 6.679 0 3.421-2.205 6.842-6.862 6.842zm0-3.177c1.307 0 2.778-.896 2.778-3.746 0-2.526-1.39-3.422-2.778-3.422-1.634 0-2.778 1.304-2.778 3.666 0 2.2.98 3.502 2.778 3.502zm8.825 2.769V37.062h4.004v9.45h4.902v3.176H97.55zm16.339.408c-4.085 0-6.781-2.525-6.781-6.76 0-3.34 1.961-6.761 6.863-6.761 4.657 0 6.781 3.258 6.781 6.679 0 3.421-2.124 6.842-6.863 6.842zm.082-3.177c1.307 0 2.778-.896 2.778-3.746 0-2.526-1.389-3.422-2.778-3.422-1.634 0-2.778 1.304-2.778 3.666 0 2.2.981 3.502 2.778 3.502zm18.056-5.456c-.245-1.303-1.225-1.873-2.451-1.873-2.287 0-3.023 1.873-3.023 3.584 0 2.85 1.471 3.828 3.105 3.828 1.062 0 2.288-.489 2.369-1.792h-2.369v-2.525h5.801v7.005h-3.023v-.896c-.735.57-2.043 1.222-3.84 1.222-2.614 0-6.209-1.955-6.209-6.598 0-3.747 2.369-6.923 6.781-6.923 2.533 0 5.637 1.221 6.372 3.91l-3.513 1.058zm12.744 2.93v5.295h-4.003v-5.295l-5.065-7.33h4.657l2.532 4.235 2.451-4.236H150l-5.229 7.331zM23.449 58.078c2.86 0 4.33 1.71 4.33 4.154 0 2.525-1.47 4.398-4.412 4.398h-3.513v4.154H15.85V58.078h7.598zm-3.595 5.864h2.288c.98 0 1.634-.57 1.634-1.629 0-.733-.409-1.629-1.634-1.629h-2.288v3.258zm16.422 6.842l-.572-1.792h-4.412l-.572 1.792h-4.33l4.82-12.626h4.576l4.738 12.626h-4.248zm-2.778-9.042l-1.389 4.48h2.696l-1.307-4.48zm15.278-3.664c2.124 0 4.494.814 4.494 4.072 0 1.63-.736 2.77-2.615 3.503l3.105 5.131h-4.493l-2.452-4.48h-1.143v4.48h-4.003V58.078h7.107zm-1.47 5.62c.817 0 1.96-.163 1.96-1.466 0-1.385-1.143-1.466-1.96-1.466h-1.634v2.932h1.634zm17.074 7.086l-2.779-5.05-1.96 2.037v3.013h-4.004V58.078h4.004v4.805l4.003-4.805h4.902l-4.412 4.805 4.739 7.82h-4.494v.081zM15.523 87.972c0-1.71 1.47-3.177 3.186-3.177s3.186 1.467 3.186 3.177-1.47 3.177-3.186 3.177a3.185 3.185 0 0 1-3.186-3.177zm.98 0c0 1.222.98 2.28 2.206 2.28s2.206-1.058 2.206-2.28c0-1.222-.98-2.28-2.206-2.28-1.225 0-2.206 1.058-2.206 2.28zm7.271 3.013v-5.294h-.817v-.815h.817v-.814c0-1.548.082-3.34 2.288-3.014v.896c-1.47-.163-1.307 1.222-1.307 2.118v.814h1.225v.815h-1.225v5.294h-.98zm9.151-5.295v5.295h-.899V85.69h-.98v-.814h.899v-2.444h.898v2.444h1.47v.814h-1.388zm2.695-5.214h.9v5.131c.49-.57 1.143-.814 2.042-.814 1.797 0 2.532.814 2.532 2.77v3.502h-.898v-3.503c0-1.222-.572-1.792-1.552-1.792-1.226 0-2.043.733-2.043 2.037v3.258h-.899v-10.59h-.081zm13.155 7.903h-5.392a2.206 2.206 0 0 0 2.206 1.873c.735 0 1.307-.326 1.715-.815h1.144c-.49 1.06-1.634 1.792-2.86 1.792-1.715 0-3.186-1.466-3.186-3.176 0-1.71 1.47-3.177 3.187-3.177 1.715 0 3.186 1.466 3.186 3.177v.326zm-5.31-.897h4.33c-.246-1.058-1.063-1.791-2.206-1.791-1.063 0-1.961.814-2.125 1.791zm11.192-6.432h1.063v4.724l4.33-4.725h1.225l-4.003 4.399 4.82 5.62h-1.307l-4.167-4.806-.98 1.06v3.746h-1.062V81.05h.081zm9.642 12.786h-1.144l1.716-3.503-2.696-5.457h1.144l2.206 4.317 2.205-4.317h1.144l-2.696 5.457-1.879 3.503zm6.371-8.145c.49-.57 1.225-.896 2.123-.896v.896c-1.062 0-2.124.652-2.124 1.955v3.421h-.898v-6.19h.898v.814zm9.396-.814v5.62c0 2.444-1.47 3.503-3.186 3.503-1.39 0-2.615-.896-3.023-2.118h1.062c.409.733 1.062 1.222 1.96 1.222 1.226 0 2.207-.652 2.207-2.607v-.407a3.043 3.043 0 0 1-2.288 1.059c-1.716 0-3.186-1.466-3.186-3.177 0-1.71 1.47-3.177 3.186-3.177.899 0 1.716.408 2.288 1.06v-.897h.98v-.081zm-.98 3.095c0-1.222-1.062-2.28-2.288-2.28-1.225 0-2.206 1.058-2.206 2.28 0 1.222.899 2.28 2.206 2.28 1.226-.08 2.288-1.058 2.288-2.28zm4.084 5.864h-1.143l1.716-3.503-2.697-5.457h1.144l2.206 4.317 2.206-4.317h1.144l-2.696 5.457-1.88 3.503zm9.886-2.85h-4.739v-.896l3.432-4.399h-3.432v-.896h4.657v.896l-3.431 4.399h3.513v.896zm5.964-9.936h3.268c1.879 0 3.187 1.221 3.187 3.095 0 1.547-.899 2.688-2.288 3.013l3.023 3.91h-1.389l-3.023-3.747h-1.879v3.747h-1.062V81.05h.163zm3.268 5.212c1.308 0 2.125-.814 2.125-2.117 0-1.304-.817-2.118-2.125-2.118h-2.287v4.235h2.287zm10.949 2.117h-5.392a2.206 2.206 0 0 0 2.206 1.873c.735 0 1.307-.326 1.715-.815h1.144c-.49 1.06-1.634 1.792-2.859 1.792-1.716 0-3.187-1.466-3.187-3.176 0-1.71 1.471-3.177 3.187-3.177 1.715 0 3.186 1.466 3.186 3.177v.326zm-5.392-.897h4.33c-.245-1.058-1.062-1.791-2.206-1.791-.981 0-1.879.814-2.124 1.791zm13.235.487c0 1.71-1.47 3.177-3.186 3.177-.899 0-1.798-.407-2.288-1.14v3.746h-.898v-8.96h.898v.978c.572-.652 1.389-1.14 2.288-1.14 1.716.162 3.186 1.547 3.186 3.339zm-.98 0c0-1.222-.981-2.28-2.206-2.28-1.226 0-2.288 1.058-2.288 2.28 0 1.222 1.062 2.28 2.288 2.28 1.225 0 2.206-1.058 2.206-2.28zm7.678 3.017h-.98v-.733c-.49.57-1.144.814-2.043.814-1.797 0-2.532-.814-2.532-2.77v-3.502h.898v3.503c0 1.222.572 1.792 1.553 1.792 1.225 0 2.042-.733 2.042-2.036v-3.259h.981v6.19h.081zm1.96-9.936h.981v4.805c.572-.651 1.389-1.14 2.287-1.14 1.716 0 3.187 1.466 3.187 3.176 0 1.711-1.471 3.177-3.187 3.177-.98 0-1.797-.407-2.287-1.14v.977h-.981V81.05zm5.474 6.923c0-1.222-.98-2.28-2.206-2.28-1.225 0-2.287 1.058-2.287 2.28 0 1.222 1.062 2.28 2.287 2.28 1.307 0 2.206-1.058 2.206-2.28zm2.37-6.923h.898v10.018h-.898V81.05zm2.695 1.873c0-.326.327-.651.654-.651s.654.325.654.651a.644.644 0 0 1-.654.652c-.327.081-.654-.245-.654-.652zm.245 1.955h.981v6.19h-.981v-6.19zm7.602 1.954c-.409-.733-1.062-1.14-1.961-1.14-1.226 0-2.206 1.058-2.206 2.28 0 1.222.98 2.28 2.206 2.28.817 0 1.552-.488 1.961-1.221h1.062c-.409 1.222-1.634 2.118-3.023 2.118-1.716 0-3.186-1.466-3.186-3.177 0-1.71 1.47-3.177 3.186-3.177 1.389 0 2.533.896 3.023 2.118h-1.062v-.081z" fill="#fff"/><path d="M12.255 90.984H0V0h88.236v6.11H6.127v78.765h6.128v6.11z" fill="#00CFBC"/></svg>